<svg id="visual" viewBox="0 0 600 900" width="600" height="900" xmlns="http://www.w3.org/2000/svg" xmlns:xlink="http://www.w3.org/1999/xlink" version="1.1"><path d="M0 64L55 109L109 109L164 118L218 100L273 118L327 127L382 64L436 73L491 73L545 73L600 82L600 0L545 0L491 0L436 0L382 0L327 0L273 0L218 0L164 0L109 0L55 0L0 0Z" fill="#735cdd"></path><path d="M0 334L55 298L109 370L164 280L218 325L273 343L327 316L382 415L436 397L491 316L545 352L600 226L600 80L545 71L491 71L436 71L382 62L327 125L273 116L218 98L164 116L109 107L55 107L0 62Z" fill="#624ebe"></path><path d="M0 550L55 622L109 685L164 586L218 667L273 559L327 712L382 658L436 685L491 667L545 721L600 604L600 224L545 350L491 314L436 395L382 413L327 314L273 341L218 323L164 278L109 368L55 296L0 332Z" fill="#5140a0"></path><path d="M0 649L55 739L109 784L164 721L218 730L273 739L327 784L382 730L436 820L491 820L545 811L600 721L600 602L545 719L491 665L436 683L382 656L327 710L273 557L218 665L164 584L109 683L55 620L0 548Z" fill="#413383"></path><path d="M0 901L55 901L109 901L164 901L218 901L273 901L327 901L382 901L436 901L491 901L545 901L600 901L600 719L545 809L491 818L436 818L382 728L327 782L273 737L218 728L164 719L109 782L55 737L0 647Z" fill="#322668"></path></svg>