<svg id="visual" viewBox="0 0 900 600" width="900" height="600" xmlns="http://www.w3.org/2000/svg" xmlns:xlink="http://www.w3.org/1999/xlink" version="1.1"><path d="M0 49L82 43L164 67L245 79L327 49L409 97L491 67L573 73L655 103L736 85L818 103L900 91L900 0L818 0L736 0L655 0L573 0L491 0L409 0L327 0L245 0L164 0L82 0L0 0Z" fill="#00cc8e"></path><path d="M0 109L82 163L164 175L245 163L327 169L409 259L491 181L573 127L655 169L736 217L818 217L900 193L900 89L818 101L736 83L655 101L573 71L491 65L409 95L327 47L245 77L164 65L82 41L0 47Z" fill="#00b98a"></path><path d="M0 223L82 373L164 373L245 379L327 325L409 463L491 337L573 439L655 289L736 409L818 337L900 319L900 191L818 215L736 215L655 167L573 125L491 179L409 257L327 167L245 161L164 173L82 161L0 107Z" fill="#00a784"></path><path d="M0 469L82 469L164 487L245 547L327 481L409 553L491 523L573 547L655 505L736 505L818 535L900 535L900 317L818 335L736 407L655 287L573 437L491 335L409 461L327 323L245 377L164 371L82 371L0 221Z" fill="#00957c"></path><path d="M0 601L82 601L164 601L245 601L327 601L409 601L491 601L573 601L655 601L736 601L818 601L900 601L900 533L818 533L736 503L655 503L573 545L491 521L409 551L327 479L245 545L164 485L82 467L0 467Z" fill="#038373"></path></svg>