<svg id="visual" viewBox="0 0 540 960" width="540" height="960" xmlns="http://www.w3.org/2000/svg" xmlns:xlink="http://www.w3.org/1999/xlink" version="1.1"><path d="M0 116L77 164L154 289L231 260L309 260L386 231L463 116L540 87L540 0L463 0L386 0L309 0L231 0L154 0L77 0L0 0Z" fill="#d4e09b"></path><path d="M0 164L77 308L154 327L231 462L309 337L386 318L463 183L540 135L540 85L463 114L386 229L309 258L231 258L154 287L77 162L0 114Z" fill="#cfc27c"></path><path d="M0 337L77 395L154 423L231 596L309 443L386 567L463 395L540 231L540 133L463 181L386 316L309 335L231 460L154 325L77 306L0 162Z" fill="#c8a463"></path><path d="M0 673L77 836L154 836L231 855L309 711L386 788L463 875L540 721L540 229L463 393L386 565L309 441L231 594L154 421L77 393L0 335Z" fill="#bf8651"></path><path d="M0 827L77 865L154 903L231 903L309 846L386 836L463 903L540 779L540 719L463 873L386 786L309 709L231 853L154 834L77 834L0 671Z" fill="#b36845"></path><path d="M0 961L77 961L154 961L231 961L309 961L386 961L463 961L540 961L540 777L463 901L386 834L309 844L231 901L154 901L77 863L0 825Z" fill="#a44a3f"></path></svg>